<svg id="D2hGYqfY3" viewBox="0 0 165 103.9263958088552" height="103.9263958088552" width="165" style="width: 165px; height: 103.926px; position: absolute; top: 50%; left: 50%; transform: translate(-50%, -50%) scale(1.37405); z-index: 0; cursor: pointer; overflow: visible;"><defs id="SvgjsDefs1001"></defs><g id="SvgjsG1007" featurekey="nYIUkx-0" transform="matrix(1.8181818181818181,0,0,1.8181818181818181,10,27.708333333333332)" fill="#f9f7f7"><g xmlns="http://www.w3.org/2000/svg"><path d="M0,5h6V1c0-0.552-0.447-1-1-1H1C0.447,0,0,0.448,0,1V5z"></path><path d="M22,1c0-0.552-0.447-1-1-1h-4c-0.553,0-1,0.448-1,1v4h6V1z"></path><path d="M0,11c0,6.065,4.935,11,11,11c6.065,0,11-4.935,11-11V6h-6v5c0,2.757-2.243,5-5,5c-2.757,0-5-2.243-5-5V6H0V11z"></path></g></g><g id="SvgjsG1008" featurekey="PXhRQw-0" transform="matrix(6.03136311581161,0,0,6.03136311581161,61.38118126771962,-28.17249138500776)" fill="#f9f7f7"><path d="M2.86 20 c-0.84 0 -1.4267 -0.17334 -1.76 -0.52 s-0.5 -0.92 -0.5 -1.72 l0 -12.26 l2.96 0 l0 11.64 c0 0.10666 0.01666 0.18666 0.05 0.24 s0.11 0.08 0.23 0.08 l1.02 0 c0.12 0 0.19666 -0.02666 0.23 -0.08 s0.05 -0.13334 0.05 -0.24 l0 -11.64 l2.96 0 l0 12.26 c0 0.8 -0.16666 1.3733 -0.5 1.72 s-0.92 0.52 -1.76 0.52 l-2.98 0 z M12.260000000000002 11.72 l0.44 0 l1.48 -6.22 l3 0 l-1.74 6.68 l1.72 7.82 l-3.18 0 l-1.14 -5.98 l-0.58 0 l0 5.98 l-2.96 0 l0 -14.5 l2.96 0 l0 6.22 l0 0 z"></path></g><g id="SvgjsG1009" featurekey="mlRtrp-0" transform="matrix(0.13641869899533382,0,0,0.13641869899533382,74.71361461155506,101.14871996365137)" fill="#f9f7f7"><path d="M17.402 16.2988 c0 0.52083 -0.068369 0.97333 -0.20509 1.3574 s-0.32715 0.71451 -0.57129 0.99121 s-0.53711 0.5013 -0.87891 0.67383 s-0.7194 0.30925 -1.1328 0.41016 s-0.85449 0.1709 -1.3232 0.20996 s-0.95378 0.058594 -1.4551 0.058594 l-9.7363 0 l0 -13.418 l9.5605 0 c0.38411 0 0.76985 0.016279 1.1572 0.048828 s0.75684 0.092773 1.1084 0.18066 s0.67871 0.20996 0.98145 0.36621 s0.56641 0.36133 0.79102 0.61523 s0.40039 0.55989 0.52734 0.91797 s0.19043 0.78125 0.19043 1.2695 c0 0.87239 -0.21484 1.5642 -0.64453 2.0752 s-1.1067 0.85123 -2.0313 1.0205 c0.65104 0.045576 1.2093 0.14486 1.6748 0.29786 s0.84473 0.36133 1.1377 0.625 s0.50781 0.58594 0.64453 0.9668 s0.20508 0.8252 0.20508 1.333 z M12.881 10.5566 c0 -0.16927 -0.026045 -0.3304 -0.078125 -0.4834 s-0.14648 -0.28809 -0.2832 -0.40527 s-0.32227 -0.21159 -0.55664 -0.2832 s-0.53386 -0.10742 -0.89844 -0.10742 l-5.3418 0 l0 2.5195 l5.3418 0 c0.36458 0 0.66406 -0.032549 0.89844 -0.097656 s0.41992 -0.153 0.55664 -0.26367 s0.23112 -0.24251 0.2832 -0.39551 s0.078125 -0.31413 0.078125 -0.4834 z M13.721 15.8789 c0 -0.30599 -0.05208 -0.55177 -0.15625 -0.73731 s-0.26693 -0.32878 -0.48829 -0.42969 s-0.50781 -0.16764 -0.85938 -0.20019 s-0.77148 -0.048828 -1.2598 -0.048828 l-5.2344 0 l0 2.8418 l5.2344 0 c0.48828 0 0.9082 -0.016279 1.2598 -0.048828 s0.63802 -0.10091 0.85938 -0.20508 s0.38412 -0.24902 0.48829 -0.43457 s0.15625 -0.43132 0.15625 -0.7373 z M35.621084375 20 l0 -13.418 l13.584 0 l0 2.8613 l-9.8633 0 l0 2.2168 l9.3555 0 l0 2.8613 l-9.3555 0 l0 2.6172 l10 0 l0 2.8613 l-13.721 0 z M67.75585 20 l0 -13.418 l3.623 0 l0 10.479 l9.7949 0 l0 2.9395 l-13.418 0 z M98.992178125 20 l0 -13.418 l3.623 0 l0 13.418 l-3.623 0 z M121.7324125 20 l0 -13.418 l13.584 0 l0 2.8613 l-9.8633 0 l0 2.2168 l9.3555 0 l0 2.8613 l-9.3555 0 l0 2.6172 l10 0 l0 2.8613 l-13.721 0 z M162.87157812499998 20 l-4.2188 0 l-6.7871 -13.418 l4.043 0 l4.8828 10.098 l4.873 -10.098 l4.043 0 z M186.82225625 20 l0 -13.418 l13.584 0 l0 2.8613 l-9.8633 0 l0 2.2168 l9.3555 0 l0 2.8613 l-9.3555 0 l0 2.6172 l10 0 l0 2.8613 l-13.721 0 z M241.394521875 20 l0 -13.418 l3.623 0 l0 13.418 l-3.623 0 z M276.81015625 20 l-9.0527 -9.2188 l0 9.2188 l-3.623 0 l0 -13.418 l3.9355 0 l9.0625 9.2578 l0 -9.2578 l3.6035 0 l0 13.418 l-3.9258 0 z M330.70940625000003 14.5215 l0 5.4785 l-3.6133 0 l0 -5.4785 l-6.5039 -7.9395 l4.0625 0 l4.2578 5.4004 l4.2383 -5.4004 l4.0625 0 z M371.603625 13.300799999999999 c0 1.1523 -0.21159 2.1696 -0.63477 3.0518 s-1.0286 1.6194 -1.8164 2.2119 s-1.7432 1.04 -2.8662 1.3428 s-2.3845 0.4541 -3.7842 0.4541 s-2.6644 -0.15137 -3.7939 -0.4541 s-2.0915 -0.75032 -2.8857 -1.3428 s-1.4063 -1.3298 -1.8359 -2.2119 s-0.64453 -1.8994 -0.64453 -3.0518 s0.21484 -2.1696 0.64453 -3.0518 s1.0417 -1.6194 1.8359 -2.2119 s1.7562 -1.04 2.8857 -1.3428 s2.3942 -0.4541 3.7939 -0.4541 s2.6611 0.15137 3.7842 0.4541 s2.0784 0.75032 2.8662 1.3428 s1.3933 1.3298 1.8164 2.2119 s0.63477 1.8994 0.63477 3.0518 z M367.941625 13.300799999999999 c0 -0.5013 -0.079756 -1.001 -0.23926 -1.499 s-0.44271 -0.94563 -0.84961 -1.3428 s-0.96191 -0.7194 -1.665 -0.9668 s-1.5983 -0.37109 -2.6855 -0.37109 c-0.72917 0 -1.3704 0.056963 -1.9238 0.1709 s-1.0319 0.27182 -1.4355 0.47364 s-0.74219 0.43783 -1.0156 0.70802 s-0.49153 0.5599 -0.6543 0.86915 s-0.27832 0.63151 -0.34668 0.9668 s-0.10254 0.66568 -0.10254 0.99121 c0 0.33203 0.03418 0.66731 0.10254 1.0059 s0.18392 0.66244 0.34668 0.97169 s0.38086 0.59733 0.6543 0.86426 s0.61198 0.49967 1.0156 0.69823 s0.88216 0.35481 1.4355 0.46875 s1.1946 0.1709 1.9238 0.1709 c1.0872 0 1.9824 -0.1237 2.6855 -0.37109 s1.2581 -0.56966 1.665 -0.9668 s0.69011 -0.84473 0.84961 -1.3428 s0.23926 -0.99775 0.23926 -1.499 z M405.66165625 15.4785 c0 0.67058 -0.16599 1.3021 -0.49802 1.8945 s-0.83008 1.1101 -1.4941 1.5527 s-1.4925 0.79264 -2.4854 1.0498 s-2.1533 0.38574 -3.4814 0.38574 s-2.4919 -0.12858 -3.4912 -0.38574 s-1.8311 -0.60709 -2.4951 -1.0498 s-1.1621 -0.96028 -1.4941 -1.5527 s-0.49805 -1.2239 -0.49805 -1.8945 l0 -8.8965 l3.6133 0 l0 7.5977 c0 0.44922 0.056963 0.87402 0.1709 1.2744 s0.32878 0.75032 0.64453 1.0498 s0.75846 0.53711 1.3281 0.71289 s1.3103 0.26367 2.2217 0.26367 c0.90495 0 1.6406 -0.087891 2.207 -0.26367 s1.0075 -0.41341 1.3232 -0.71289 s0.52896 -0.64941 0.63964 -1.0498 s0.16602 -0.8252 0.16602 -1.2744 l0 -7.5977 l3.623 0 l0 8.8965 l0 0 z M428.30473125 20 l-3.623 0 l0 -13.418 l9.082 0 c0.97656 0 1.805 0.10091 2.4854 0.30273 s1.2337 0.48828 1.6602 0.85938 s0.73568 0.81868 0.92774 1.3428 s0.28809 1.1084 0.28809 1.7529 c0 0.56641 -0.079756 1.0612 -0.23926 1.4844 s-0.37435 0.78613 -0.64453 1.0889 s-0.58432 0.55827 -0.94239 0.7666 s-0.73568 0.38086 -1.1328 0.51758 l4.3945 5.3027 l-4.2383 0 l-4.0625 -4.9414 l-3.9551 0 l0 4.9414 z M435.46303125 10.8203 c0 -0.26042 -0.03418 -0.48174 -0.10254 -0.66403 s-0.18718 -0.33041 -0.35645 -0.44435 s-0.39551 -0.19694 -0.67871 -0.24902 s-0.6364 -0.078125 -1.0596 -0.078125 l-4.9609 0 l0 2.8711 l4.9609 0 c0.42317 0 0.77637 -0.026045 1.0596 -0.078125 s0.50944 -0.13509 0.67871 -0.24902 s0.28809 -0.26205 0.35645 -0.44435 s0.10254 -0.40365 0.10254 -0.66407 z M492.8770625 10.3613 c-0.25391 -0.1237 -0.58916 -0.26372 -1.0059 -0.41997 s-0.88867 -0.30437 -1.416 -0.44434 s-1.1003 -0.25716 -1.7188 -0.35156 s-1.2532 -0.1416 -1.9043 -0.1416 c-0.52083 0 -0.96517 0.016279 -1.333 0.048828 s-0.67709 0.074863 -0.92774 0.12694 s-0.44922 0.1123 -0.5957 0.18066 s-0.25879 0.13835 -0.33691 0.20996 s-0.12858 0.14322 -0.15137 0.21483 s-0.03418 0.13672 -0.03418 0.19531 c0 0.19531 0.097656 0.36621 0.29297 0.5127 s0.46224 0.27669 0.80078 0.39063 s0.73242 0.22136 1.1816 0.32227 s0.9261 0.20508 1.4307 0.3125 s1.0254 0.22461 1.5625 0.35156 s1.0579 0.27507 1.5625 0.44434 s0.98145 0.36621 1.4307 0.59082 s0.8431 0.48665 1.1816 0.78613 s0.60547 0.64453 0.80078 1.0352 s0.29297 0.83659 0.29297 1.3379 c0 0.64453 -0.11394 1.1979 -0.3418 1.6602 s-0.53223 0.85286 -0.91309 1.1719 s-0.82194 0.57455 -1.3232 0.76661 s-1.0271 0.34018 -1.5771 0.44435 s-1.1067 0.17253 -1.6699 0.20508 s-1.0986 0.048828 -1.6064 0.048828 c-1.3281 0 -2.5569 -0.10905 -3.6865 -0.32715 s-2.1272 -0.4899 -2.9932 -0.81542 l0 -3.2031 c0.89192 0.49479 1.9092 0.88217 3.0518 1.1621 s2.3649 0.41992 3.667 0.41992 c0.76823 0 1.3948 -0.040693 1.8799 -0.12207 s0.86426 -0.18555 1.1377 -0.3125 s0.45898 -0.2653 0.55664 -0.41504 s0.14648 -0.29297 0.14648 -0.42969 c0 -0.21484 -0.097656 -0.40202 -0.29297 -0.56152 s-0.46224 -0.29947 -0.80078 -0.41991 s-0.73242 -0.23111 -1.1816 -0.33202 s-0.9261 -0.20182 -1.4307 -0.30272 s-1.0237 -0.20996 -1.5576 -0.32715 s-1.053 -0.25554 -1.5576 -0.41504 s-0.98145 -0.34505 -1.4307 -0.55664 s-0.8431 -0.46225 -1.1816 -0.75196 s-0.60547 -0.625 -0.80078 -1.0059 s-0.29297 -0.82194 -0.29297 -1.3232 c0 -0.59245 0.10417 -1.1035 0.3125 -1.5332 s0.4899 -0.7959 0.84472 -1.0986 s0.76497 -0.54851 1.2305 -0.7373 s0.95541 -0.33528 1.4697 -0.43945 s1.0352 -0.17578 1.5625 -0.21484 s1.0286 -0.058594 1.5039 -0.058594 c0.52083 0 1.0563 0.026045 1.6064 0.078125 s1.0921 0.12532 1.626 0.21973 s1.0498 0.20346 1.5479 0.32716 s0.95866 0.25391 1.3818 0.39063 l0 3.1055 z M512.335928125 20 l0 -13.418 l13.584 0 l0 2.8613 l-9.8633 0 l0 2.2168 l9.3555 0 l0 2.8613 l-9.3555 0 l0 2.6172 l10 0 l0 2.8613 l-13.721 0 z M544.47069375 20 l0 -13.418 l3.623 0 l0 10.479 l9.7949 0 l0 2.9395 l-13.418 0 z M579.330121875 9.443 l0 2.334 l8.7207 0 l0 2.8613 l-8.7207 0 l0 5.3613 l-3.623 0 l0 -13.418 l12.822 0 l0 2.8613 l-9.1992 0 z"></path></g></svg>